# https://github.com/mikedh/trimesh
v -0.40000000 2.60000000 -0.40000000
v -0.40000000 2.60000000 0.40000000
v -0.40000000 3.40000000 -0.40000000
v -0.40000000 3.40000000 0.40000000
v 0.40000000 2.60000000 -0.40000000
v 0.40000000 2.60000000 0.40000000
v 0.40000000 3.40000000 -0.40000000
v 0.40000000 3.40000000 0.40000000
v -0.40000000 2.60000000 0.00000000
v -0.40000000 3.00000000 -0.40000000
v -0.40000000 3.00000000 0.00000000
v -0.40000000 3.00000000 0.40000000
v -0.40000000 3.40000000 0.00000000
v 0.00000000 2.60000000 -0.40000000
v 0.00000000 2.60000000 0.00000000
v 0.00000000 3.00000000 -0.40000000
v 0.00000000 2.60000000 0.40000000
v 0.40000000 2.60000000 0.00000000
v 0.00000000 3.40000000 -0.40000000
v 0.40000000 3.00000000 -0.40000000
v 0.40000000 3.00000000 0.00000000
v 0.00000000 3.00000000 0.40000000
v 0.00000000 3.40000000 0.00000000
v 0.00000000 3.40000000 0.40000000
v 0.40000000 3.00000000 0.40000000
v 0.40000000 3.40000000 0.00000000
v 0.00000000 -3.00000000 -0.60000000
v 0.30000000 -3.00000000 -0.60000000
v 0.30000000 -3.00000000 0.60000000
v 0.00000000 -3.00000000 0.60000000
v 0.28977775 -2.92235429 -0.60000000
v 0.28977775 -2.92235429 0.60000000
v 0.25980762 -2.85000000 -0.60000000
v 0.25980762 -2.85000000 0.60000000
v 0.21213203 -2.78786797 -0.60000000
v 0.21213203 -2.78786797 0.60000000
v 0.15000000 -2.74019238 -0.60000000
v 0.15000000 -2.74019238 0.60000000
v 0.07764571 -2.71022225 -0.60000000
v 0.07764571 -2.71022225 0.60000000
v 0.00000000 -2.70000000 -0.60000000
v 0.00000000 -2.70000000 0.60000000
v -0.07764571 -2.71022225 -0.60000000
v -0.07764571 -2.71022225 0.60000000
v -0.15000000 -2.74019238 -0.60000000
v -0.15000000 -2.74019238 0.60000000
v -0.21213203 -2.78786797 -0.60000000
v -0.21213203 -2.78786797 0.60000000
v -0.25980762 -2.85000000 -0.60000000
v -0.25980762 -2.85000000 0.60000000
v -0.28977775 -2.92235429 -0.60000000
v -0.28977775 -2.92235429 0.60000000
v -0.30000000 -3.00000000 -0.60000000
v -0.30000000 -3.00000000 0.60000000
v -0.28977775 -3.07764571 -0.60000000
v -0.28977775 -3.07764571 0.60000000
v -0.25980762 -3.15000000 -0.60000000
v -0.25980762 -3.15000000 0.60000000
v -0.21213203 -3.21213203 -0.60000000
v -0.21213203 -3.21213203 0.60000000
v -0.15000000 -3.25980762 -0.60000000
v -0.15000000 -3.25980762 0.60000000
v -0.07764571 -3.28977775 -0.60000000
v -0.07764571 -3.28977775 0.60000000
v -0.00000000 -3.30000000 -0.60000000
v -0.00000000 -3.30000000 0.60000000
v 0.07764571 -3.28977775 -0.60000000
v 0.07764571 -3.28977775 0.60000000
v 0.15000000 -3.25980762 -0.60000000
v 0.15000000 -3.25980762 0.60000000
v 0.21213203 -3.21213203 -0.60000000
v 0.21213203 -3.21213203 0.60000000
v 0.25980762 -3.15000000 -0.60000000
v 0.25980762 -3.15000000 0.60000000
v 0.28977775 -3.07764571 -0.60000000
v 0.28977775 -3.07764571 0.60000000
f 2 12 9
f 12 4 11
f 9 11 1
f 12 11 9
f 5 15 14
f 15 2 9
f 14 9 1
f 15 9 14
f 1 11 10
f 11 4 13
f 10 13 3
f 11 13 10
f 3 16 10
f 16 5 14
f 10 14 1
f 16 14 10
f 2 22 12
f 22 8 24
f 12 24 4
f 22 24 12
f 6 17 18
f 17 2 15
f 18 15 5
f 17 15 18
f 6 25 17
f 25 8 22
f 17 22 2
f 25 22 17
f 4 24 13
f 24 8 23
f 13 23 3
f 24 23 13
f 7 20 19
f 20 5 16
f 19 16 3
f 20 16 19
f 3 23 19
f 23 8 26
f 19 26 7
f 23 26 19
f 7 21 20
f 21 6 18
f 20 18 5
f 21 18 20
f 8 25 26
f 25 6 21
f 26 21 7
f 25 21 26
f 28 27 31
f 28 31 29
f 29 31 32
f 29 32 30
f 31 27 33
f 31 33 32
f 32 33 34
f 32 34 30
f 33 27 35
f 33 35 34
f 34 35 36
f 34 36 30
f 35 27 37
f 35 37 36
f 36 37 38
f 36 38 30
f 37 27 39
f 37 39 38
f 38 39 40
f 38 40 30
f 39 27 41
f 39 41 40
f 40 41 42
f 40 42 30
f 41 27 43
f 41 43 42
f 42 43 44
f 42 44 30
f 43 27 45
f 43 45 44
f 44 45 46
f 44 46 30
f 45 27 47
f 45 47 46
f 46 47 48
f 46 48 30
f 47 27 49
f 47 49 48
f 48 49 50
f 48 50 30
f 49 27 51
f 49 51 50
f 50 51 52
f 50 52 30
f 51 27 53
f 51 53 52
f 52 53 54
f 52 54 30
f 53 27 55
f 53 55 54
f 54 55 56
f 54 56 30
f 55 27 57
f 55 57 56
f 56 57 58
f 56 58 30
f 57 27 59
f 57 59 58
f 58 59 60
f 58 60 30
f 59 27 61
f 59 61 60
f 60 61 62
f 60 62 30
f 61 27 63
f 61 63 62
f 62 63 64
f 62 64 30
f 63 27 65
f 63 65 64
f 64 65 66
f 64 66 30
f 65 27 67
f 65 67 66
f 66 67 68
f 66 68 30
f 67 27 69
f 67 69 68
f 68 69 70
f 68 70 30
f 69 27 71
f 69 71 70
f 70 71 72
f 70 72 30
f 71 27 73
f 71 73 72
f 72 73 74
f 72 74 30
f 73 27 75
f 73 75 74
f 74 75 76
f 74 76 30
f 75 27 28
f 75 28 76
f 76 28 29
f 76 29 30

