# https://github.com/mikedh/trimesh
v 1.73713444 0.42532540 0.00000000
v 2.26286556 0.42532540 0.00000000
v 1.73713444 -0.42532540 0.00000000
v 2.26286556 -0.42532540 0.00000000
v 2.00000000 -0.26286556 0.42532540
v 2.00000000 0.26286556 0.42532540
v 2.00000000 -0.26286556 -0.42532540
v 2.00000000 0.26286556 -0.42532540
v 2.42532540 0.00000000 -0.26286556
v 2.42532540 0.00000000 0.26286556
v 1.57467460 0.00000000 -0.26286556
v 1.57467460 0.00000000 0.26286556
v 2.00000000 0.50000000 0.00000000
v 2.00000000 -0.50000000 0.00000000
v 1.84549150 -0.40450850 0.25000000
v 2.15450850 -0.40450850 0.25000000
v 1.84549150 0.40450850 0.25000000
v 2.15450850 0.40450850 0.25000000
v 2.00000000 0.00000000 0.50000000
v 1.84549150 -0.40450850 -0.25000000
v 2.15450850 -0.40450850 -0.25000000
v 1.84549150 0.40450850 -0.25000000
v 2.15450850 0.40450850 -0.25000000
v 2.00000000 0.00000000 -0.50000000
v 2.40450850 0.25000000 -0.15450850
v 2.40450850 -0.25000000 -0.15450850
v 2.25000000 -0.15450850 -0.40450850
v 2.25000000 0.15450850 -0.40450850
v 2.40450850 0.25000000 0.15450850
v 2.40450850 -0.25000000 0.15450850
v 2.25000000 -0.15450850 0.40450850
v 2.25000000 0.15450850 0.40450850
v 2.50000000 0.00000000 0.00000000
v 1.59549150 0.25000000 -0.15450850
v 1.59549150 -0.25000000 -0.15450850
v 1.75000000 -0.15450850 -0.40450850
v 1.75000000 0.15450850 -0.40450850
v 1.59549150 0.25000000 0.15450850
v 1.59549150 -0.25000000 0.15450850
v 1.75000000 -0.15450850 0.40450850
v 1.75000000 0.15450850 0.40450850
v 1.50000000 0.00000000 0.00000000
v 1.86336674 0.48096918 0.00000000
v 2.13663326 0.48096918 0.00000000
v 1.86336674 -0.48096918 0.00000000
v 2.13663326 -0.48096918 0.00000000
v 1.78305572 -0.43133424 0.12994596
v 1.91968898 -0.34689024 0.35102322
v 1.91877008 -0.47552826 0.13143278
v 2.21694428 -0.43133424 0.12994596
v 2.08031102 -0.34689024 0.35102322
v 2.08122992 -0.47552826 0.13143278
v 2.00000000 -0.42532540 0.26286556
v 1.78305572 0.43133424 0.12994596
v 1.91968898 0.34689024 0.35102322
v 1.91877008 0.47552826 0.13143278
v 2.21694428 0.43133424 0.12994596
v 2.08031102 0.34689024 0.35102322
v 2.08122992 0.47552826 0.13143278
v 2.00000000 0.42532540 0.26286556
v 2.00000000 -0.13663326 0.48096918
v 2.00000000 0.13663326 0.48096918
v 1.78305572 -0.43133424 -0.12994596
v 1.91968898 -0.34689024 -0.35102322
v 1.91877008 -0.47552826 -0.13143278
v 2.21694428 -0.43133424 -0.12994596
v 2.08031102 -0.34689024 -0.35102322
v 2.08122992 -0.47552826 -0.13143278
v 2.00000000 -0.42532540 -0.26286556
v 1.78305572 0.43133424 -0.12994596
v 1.91968898 0.34689024 -0.35102322
v 1.91877008 0.47552826 -0.13143278
v 2.21694428 0.43133424 -0.12994596
v 2.08031102 0.34689024 -0.35102322
v 2.08122992 0.47552826 -0.13143278
v 2.00000000 0.42532540 -0.26286556
v 2.00000000 -0.13663326 -0.48096918
v 2.00000000 0.13663326 -0.48096918
v 2.34689024 0.35102322 -0.08031102
v 2.43133424 0.12994596 -0.21694428
v 2.29389263 0.34409548 -0.21266270
v 2.34689024 -0.35102322 -0.08031102
v 2.43133424 -0.12994596 -0.21694428
v 2.29389263 -0.34409548 -0.21266270
v 2.12994596 -0.21694428 -0.43133424
v 2.35102322 -0.08031102 -0.34689024
v 2.21266270 -0.29389263 -0.34409548
v 2.13143278 -0.08122992 -0.47552826
v 2.34409548 -0.21266270 -0.29389263
v 2.12994596 0.21694428 -0.43133424
v 2.35102322 0.08031102 -0.34689024
v 2.21266270 0.29389263 -0.34409548
v 2.13143278 0.08122992 -0.47552826
v 2.34409548 0.21266270 -0.29389263
v 2.26286556 0.00000000 -0.42532540
v 2.34689024 0.35102322 0.08031102
v 2.43133424 0.12994596 0.21694428
v 2.29389263 0.34409548 0.21266270
v 2.42532540 0.26286556 0.00000000
v 2.34689024 -0.35102322 0.08031102
v 2.43133424 -0.12994596 0.21694428
v 2.29389263 -0.34409548 0.21266270
v 2.42532540 -0.26286556 0.00000000
v 2.12994596 -0.21694428 0.43133424
v 2.35102322 -0.08031102 0.34689024
v 2.21266270 -0.29389263 0.34409548
v 2.13143278 -0.08122992 0.47552826
v 2.34409548 -0.21266270 0.29389263
v 2.12994596 0.21694428 0.43133424
v 2.35102322 0.08031102 0.34689024
v 2.21266270 0.29389263 0.34409548
v 2.13143278 0.08122992 0.47552826
v 2.34409548 0.21266270 0.29389263
v 2.26286556 0.00000000 0.42532540
v 2.48096918 0.00000000 -0.13663326
v 2.48096918 0.00000000 0.13663326
v 2.47552826 0.13143278 -0.08122992
v 2.47552826 -0.13143278 -0.08122992
v 2.47552826 0.13143278 0.08122992
v 2.47552826 -0.13143278 0.08122992
v 1.65310976 0.35102322 -0.08031102
v 1.56866576 0.12994596 -0.21694428
v 1.70610737 0.34409548 -0.21266270
v 1.65310976 -0.35102322 -0.08031102
v 1.56866576 -0.12994596 -0.21694428
v 1.70610737 -0.34409548 -0.21266270
v 1.87005404 -0.21694428 -0.43133424
v 1.64897678 -0.08031102 -0.34689024
v 1.78733730 -0.29389263 -0.34409548
v 1.86856722 -0.08122992 -0.47552826
v 1.65590452 -0.21266270 -0.29389263
v 1.87005404 0.21694428 -0.43133424
v 1.64897678 0.08031102 -0.34689024
v 1.78733730 0.29389263 -0.34409548
v 1.86856722 0.08122992 -0.47552826
v 1.65590452 0.21266270 -0.29389263
v 1.73713444 0.00000000 -0.42532540
v 1.65310976 0.35102322 0.08031102
v 1.56866576 0.12994596 0.21694428
v 1.70610737 0.34409548 0.21266270
v 1.57467460 0.26286556 0.00000000
v 1.65310976 -0.35102322 0.08031102
v 1.56866576 -0.12994596 0.21694428
v 1.70610737 -0.34409548 0.21266270
v 1.57467460 -0.26286556 0.00000000
v 1.87005404 -0.21694428 0.43133424
v 1.64897678 -0.08031102 0.34689024
v 1.78733730 -0.29389263 0.34409548
v 1.86856722 -0.08122992 0.47552826
v 1.65590452 -0.21266270 0.29389263
v 1.87005404 0.21694428 0.43133424
v 1.64897678 0.08031102 0.34689024
v 1.78733730 0.29389263 0.34409548
v 1.86856722 0.08122992 0.47552826
v 1.65590452 0.21266270 0.29389263
v 1.73713444 0.00000000 0.42532540
v 1.51903082 0.00000000 -0.13663326
v 1.51903082 0.00000000 0.13663326
v 1.52447174 0.13143278 -0.08122992
v 1.52447174 -0.13143278 -0.08122992
v 1.52447174 0.13143278 0.08122992
v 1.52447174 -0.13143278 0.08122992
v -2.21029244 0.34026032 0.00000000
v -1.78970756 0.34026032 0.00000000
v -2.21029244 -0.34026032 0.00000000
v -1.78970756 -0.34026032 0.00000000
v -2.00000000 -0.21029244 0.34026032
v -2.00000000 0.21029244 0.34026032
v -2.00000000 -0.21029244 -0.34026032
v -2.00000000 0.21029244 -0.34026032
v -1.65973968 0.00000000 -0.21029244
v -1.65973968 0.00000000 0.21029244
v -2.34026032 0.00000000 -0.21029244
v -2.34026032 0.00000000 0.21029244
v -2.00000000 0.40000000 0.00000000
v -2.00000000 -0.40000000 0.00000000
v -2.12360680 -0.32360680 0.20000000
v -1.87639320 -0.32360680 0.20000000
v -2.12360680 0.32360680 0.20000000
v -1.87639320 0.32360680 0.20000000
v -2.00000000 0.00000000 0.40000000
v -2.12360680 -0.32360680 -0.20000000
v -1.87639320 -0.32360680 -0.20000000
v -2.12360680 0.32360680 -0.20000000
v -1.87639320 0.32360680 -0.20000000
v -2.00000000 0.00000000 -0.40000000
v -1.67639320 0.20000000 -0.12360680
v -1.67639320 -0.20000000 -0.12360680
v -1.80000000 -0.12360680 -0.32360680
v -1.80000000 0.12360680 -0.32360680
v -1.67639320 0.20000000 0.12360680
v -1.67639320 -0.20000000 0.12360680
v -1.80000000 -0.12360680 0.32360680
v -1.80000000 0.12360680 0.32360680
v -1.60000000 0.00000000 0.00000000
v -2.32360680 0.20000000 -0.12360680
v -2.32360680 -0.20000000 -0.12360680
v -2.20000000 -0.12360680 -0.32360680
v -2.20000000 0.12360680 -0.32360680
v -2.32360680 0.20000000 0.12360680
v -2.32360680 -0.20000000 0.12360680
v -2.20000000 -0.12360680 0.32360680
v -2.20000000 0.12360680 0.32360680
v -2.40000000 0.00000000 0.00000000
v -2.10930661 0.38477534 0.00000000
v -1.89069339 0.38477534 0.00000000
v -2.10930661 -0.38477534 0.00000000
v -1.89069339 -0.38477534 0.00000000
v -2.17355543 -0.34506739 0.10395677
v -2.06424881 -0.27751219 0.28081858
v -2.06498394 -0.38042261 0.10514622
v -1.82644457 -0.34506739 0.10395677
v -1.93575119 -0.27751219 0.28081858
v -1.93501606 -0.38042261 0.10514622
v -2.00000000 -0.34026032 0.21029244
v -2.17355543 0.34506739 0.10395677
v -2.06424881 0.27751219 0.28081858
v -2.06498394 0.38042261 0.10514622
v -1.82644457 0.34506739 0.10395677
v -1.93575119 0.27751219 0.28081858
v -1.93501606 0.38042261 0.10514622
v -2.00000000 0.34026032 0.21029244
v -2.00000000 -0.10930661 0.38477534
v -2.00000000 0.10930661 0.38477534
v -2.17355543 -0.34506739 -0.10395677
v -2.06424881 -0.27751219 -0.28081858
v -2.06498394 -0.38042261 -0.10514622
v -1.82644457 -0.34506739 -0.10395677
v -1.93575119 -0.27751219 -0.28081858
v -1.93501606 -0.38042261 -0.10514622
v -2.00000000 -0.34026032 -0.21029244
v -2.17355543 0.34506739 -0.10395677
v -2.06424881 0.27751219 -0.28081858
v -2.06498394 0.38042261 -0.10514622
v -1.82644457 0.34506739 -0.10395677
v -1.93575119 0.27751219 -0.28081858
v -1.93501606 0.38042261 -0.10514622
v -2.00000000 0.34026032 -0.21029244
v -2.00000000 -0.10930661 -0.38477534
v -2.00000000 0.10930661 -0.38477534
v -1.72248781 0.28081858 -0.06424881
v -1.65493261 0.10395677 -0.17355543
v -1.76488590 0.27527638 -0.17013016
v -1.72248781 -0.28081858 -0.06424881
v -1.65493261 -0.10395677 -0.17355543
v -1.76488590 -0.27527638 -0.17013016
v -1.89604323 -0.17355543 -0.34506739
v -1.71918142 -0.06424881 -0.27751219
v -1.82986984 -0.23511410 -0.27527638
v -1.89485378 -0.06498394 -0.38042261
v -1.72472362 -0.17013016 -0.23511410
v -1.89604323 0.17355543 -0.34506739
v -1.71918142 0.06424881 -0.27751219
v -1.82986984 0.23511410 -0.27527638
v -1.89485378 0.06498394 -0.38042261
v -1.72472362 0.17013016 -0.23511410
v -1.78970756 0.00000000 -0.34026032
v -1.72248781 0.28081858 0.06424881
v -1.65493261 0.10395677 0.17355543
v -1.76488590 0.27527638 0.17013016
v -1.65973968 0.21029244 0.00000000
v -1.72248781 -0.28081858 0.06424881
v -1.65493261 -0.10395677 0.17355543
v -1.76488590 -0.27527638 0.17013016
v -1.65973968 -0.21029244 0.00000000
v -1.89604323 -0.17355543 0.34506739
v -1.71918142 -0.06424881 0.27751219
v -1.82986984 -0.23511410 0.27527638
v -1.89485378 -0.06498394 0.38042261
v -1.72472362 -0.17013016 0.23511410
v -1.89604323 0.17355543 0.34506739
v -1.71918142 0.06424881 0.27751219
v -1.82986984 0.23511410 0.27527638
v -1.89485378 0.06498394 0.38042261
v -1.72472362 0.17013016 0.23511410
v -1.78970756 0.00000000 0.34026032
v -1.61522466 0.00000000 -0.10930661
v -1.61522466 0.00000000 0.10930661
v -1.61957739 0.10514622 -0.06498394
v -1.61957739 -0.10514622 -0.06498394
v -1.61957739 0.10514622 0.06498394
v -1.61957739 -0.10514622 0.06498394
v -2.27751219 0.28081858 -0.06424881
v -2.34506739 0.10395677 -0.17355543
v -2.23511410 0.27527638 -0.17013016
v -2.27751219 -0.28081858 -0.06424881
v -2.34506739 -0.10395677 -0.17355543
v -2.23511410 -0.27527638 -0.17013016
v -2.10395677 -0.17355543 -0.34506739
v -2.28081858 -0.06424881 -0.27751219
v -2.17013016 -0.23511410 -0.27527638
v -2.10514622 -0.06498394 -0.38042261
v -2.27527638 -0.17013016 -0.23511410
v -2.10395677 0.17355543 -0.34506739
v -2.28081858 0.06424881 -0.27751219
v -2.17013016 0.23511410 -0.27527638
v -2.10514622 0.06498394 -0.38042261
v -2.27527638 0.17013016 -0.23511410
v -2.21029244 0.00000000 -0.34026032
v -2.27751219 0.28081858 0.06424881
v -2.34506739 0.10395677 0.17355543
v -2.23511410 0.27527638 0.17013016
v -2.34026032 0.21029244 0.00000000
v -2.27751219 -0.28081858 0.06424881
v -2.34506739 -0.10395677 0.17355543
v -2.23511410 -0.27527638 0.17013016
v -2.34026032 -0.21029244 0.00000000
v -2.10395677 -0.17355543 0.34506739
v -2.28081858 -0.06424881 0.27751219
v -2.17013016 -0.23511410 0.27527638
v -2.10514622 -0.06498394 0.38042261
v -2.27527638 -0.17013016 0.23511410
v -2.10395677 0.17355543 0.34506739
v -2.28081858 0.06424881 0.27751219
v -2.17013016 0.23511410 0.27527638
v -2.10514622 0.06498394 0.38042261
v -2.27527638 0.17013016 0.23511410
v -2.21029244 0.00000000 0.34026032
v -2.38477534 0.00000000 -0.10930661
v -2.38477534 0.00000000 0.10930661
v -2.38042261 0.10514622 -0.06498394
v -2.38042261 -0.10514622 -0.06498394
v -2.38042261 0.10514622 0.06498394
v -2.38042261 -0.10514622 0.06498394
f 1 138 54
f 138 38 140
f 54 140 17
f 138 140 54
f 38 139 155
f 139 12 152
f 155 152 41
f 139 152 155
f 17 153 55
f 153 41 151
f 55 151 6
f 153 151 55
f 38 155 140
f 155 41 153
f 140 153 17
f 155 153 140
f 1 54 43
f 54 17 56
f 43 56 13
f 54 56 43
f 17 55 60
f 55 6 58
f 60 58 18
f 55 58 60
f 13 59 44
f 59 18 57
f 44 57 2
f 59 57 44
f 17 60 56
f 60 18 59
f 56 59 13
f 60 59 56
f 1 43 70
f 43 13 72
f 70 72 22
f 43 72 70
f 13 44 75
f 44 2 73
f 75 73 23
f 44 73 75
f 22 76 71
f 76 23 74
f 71 74 8
f 76 74 71
f 13 75 72
f 75 23 76
f 72 76 22
f 75 76 72
f 1 70 121
f 70 22 123
f 121 123 34
f 70 123 121
f 22 71 134
f 71 8 132
f 134 132 37
f 71 132 134
f 34 136 122
f 136 37 133
f 122 133 11
f 136 133 122
f 22 134 123
f 134 37 136
f 123 136 34
f 134 136 123
f 1 121 138
f 121 34 141
f 138 141 38
f 121 141 138
f 34 122 159
f 122 11 157
f 159 157 42
f 122 157 159
f 38 161 139
f 161 42 158
f 139 158 12
f 161 158 139
f 34 159 141
f 159 42 161
f 141 161 38
f 159 161 141
f 2 57 96
f 57 18 98
f 96 98 29
f 57 98 96
f 18 58 111
f 58 6 109
f 111 109 32
f 58 109 111
f 29 113 97
f 113 32 110
f 97 110 10
f 113 110 97
f 18 111 98
f 111 32 113
f 98 113 29
f 111 113 98
f 6 151 62
f 151 41 154
f 62 154 19
f 151 154 62
f 41 152 156
f 152 12 147
f 156 147 40
f 152 147 156
f 19 149 61
f 149 40 146
f 61 146 5
f 149 146 61
f 41 156 154
f 156 40 149
f 154 149 19
f 156 149 154
f 12 158 143
f 158 42 162
f 143 162 39
f 158 162 143
f 42 157 160
f 157 11 125
f 160 125 35
f 157 125 160
f 39 145 142
f 145 35 124
f 142 124 3
f 145 124 142
f 42 160 162
f 160 35 145
f 162 145 39
f 160 145 162
f 11 133 128
f 133 37 137
f 128 137 36
f 133 137 128
f 37 132 135
f 132 8 78
f 135 78 24
f 132 78 135
f 36 130 127
f 130 24 77
f 127 77 7
f 130 77 127
f 37 135 137
f 135 24 130
f 137 130 36
f 135 130 137
f 8 74 90
f 74 23 92
f 90 92 28
f 74 92 90
f 23 73 81
f 73 2 79
f 81 79 25
f 73 79 81
f 28 94 91
f 94 25 80
f 91 80 9
f 94 80 91
f 23 81 92
f 81 25 94
f 92 94 28
f 81 94 92
f 4 100 50
f 100 30 102
f 50 102 16
f 100 102 50
f 30 101 108
f 101 10 105
f 108 105 31
f 101 105 108
f 16 106 51
f 106 31 104
f 51 104 5
f 106 104 51
f 30 108 102
f 108 31 106
f 102 106 16
f 108 106 102
f 4 50 46
f 50 16 52
f 46 52 14
f 50 52 46
f 16 51 53
f 51 5 48
f 53 48 15
f 51 48 53
f 14 49 45
f 49 15 47
f 45 47 3
f 49 47 45
f 16 53 52
f 53 15 49
f 52 49 14
f 53 49 52
f 4 46 66
f 46 14 68
f 66 68 21
f 46 68 66
f 14 45 65
f 45 3 63
f 65 63 20
f 45 63 65
f 21 69 67
f 69 20 64
f 67 64 7
f 69 64 67
f 14 65 68
f 65 20 69
f 68 69 21
f 65 69 68
f 4 66 82
f 66 21 84
f 82 84 26
f 66 84 82
f 21 67 87
f 67 7 85
f 87 85 27
f 67 85 87
f 26 89 83
f 89 27 86
f 83 86 9
f 89 86 83
f 21 87 84
f 87 27 89
f 84 89 26
f 87 89 84
f 4 82 100
f 82 26 103
f 100 103 30
f 82 103 100
f 26 83 118
f 83 9 115
f 118 115 33
f 83 115 118
f 30 120 101
f 120 33 116
f 101 116 10
f 120 116 101
f 26 118 103
f 118 33 120
f 103 120 30
f 118 120 103
f 5 104 61
f 104 31 107
f 61 107 19
f 104 107 61
f 31 105 114
f 105 10 110
f 114 110 32
f 105 110 114
f 19 112 62
f 112 32 109
f 62 109 6
f 112 109 62
f 31 114 107
f 114 32 112
f 107 112 19
f 114 112 107
f 3 47 142
f 47 15 144
f 142 144 39
f 47 144 142
f 15 48 148
f 48 5 146
f 148 146 40
f 48 146 148
f 39 150 143
f 150 40 147
f 143 147 12
f 150 147 143
f 15 148 144
f 148 40 150
f 144 150 39
f 148 150 144
f 7 64 127
f 64 20 129
f 127 129 36
f 64 129 127
f 20 63 126
f 63 3 124
f 126 124 35
f 63 124 126
f 36 131 128
f 131 35 125
f 128 125 11
f 131 125 128
f 20 126 129
f 126 35 131
f 129 131 36
f 126 131 129
f 9 86 91
f 86 27 95
f 91 95 28
f 86 95 91
f 27 85 88
f 85 7 77
f 88 77 24
f 85 77 88
f 28 93 90
f 93 24 78
f 90 78 8
f 93 78 90
f 27 88 95
f 88 24 93
f 95 93 28
f 88 93 95
f 10 116 97
f 116 33 119
f 97 119 29
f 116 119 97
f 33 115 117
f 115 9 80
f 117 80 25
f 115 80 117
f 29 99 96
f 99 25 79
f 96 79 2
f 99 79 96
f 33 117 119
f 117 25 99
f 119 99 29
f 117 99 119
f 163 300 216
f 300 200 302
f 216 302 179
f 300 302 216
f 200 301 317
f 301 174 314
f 317 314 203
f 301 314 317
f 179 315 217
f 315 203 313
f 217 313 168
f 315 313 217
f 200 317 302
f 317 203 315
f 302 315 179
f 317 315 302
f 163 216 205
f 216 179 218
f 205 218 175
f 216 218 205
f 179 217 222
f 217 168 220
f 222 220 180
f 217 220 222
f 175 221 206
f 221 180 219
f 206 219 164
f 221 219 206
f 179 222 218
f 222 180 221
f 218 221 175
f 222 221 218
f 163 205 232
f 205 175 234
f 232 234 184
f 205 234 232
f 175 206 237
f 206 164 235
f 237 235 185
f 206 235 237
f 184 238 233
f 238 185 236
f 233 236 170
f 238 236 233
f 175 237 234
f 237 185 238
f 234 238 184
f 237 238 234
f 163 232 283
f 232 184 285
f 283 285 196
f 232 285 283
f 184 233 296
f 233 170 294
f 296 294 199
f 233 294 296
f 196 298 284
f 298 199 295
f 284 295 173
f 298 295 284
f 184 296 285
f 296 199 298
f 285 298 196
f 296 298 285
f 163 283 300
f 283 196 303
f 300 303 200
f 283 303 300
f 196 284 321
f 284 173 319
f 321 319 204
f 284 319 321
f 200 323 301
f 323 204 320
f 301 320 174
f 323 320 301
f 196 321 303
f 321 204 323
f 303 323 200
f 321 323 303
f 164 219 258
f 219 180 260
f 258 260 191
f 219 260 258
f 180 220 273
f 220 168 271
f 273 271 194
f 220 271 273
f 191 275 259
f 275 194 272
f 259 272 172
f 275 272 259
f 180 273 260
f 273 194 275
f 260 275 191
f 273 275 260
f 168 313 224
f 313 203 316
f 224 316 181
f 313 316 224
f 203 314 318
f 314 174 309
f 318 309 202
f 314 309 318
f 181 311 223
f 311 202 308
f 223 308 167
f 311 308 223
f 203 318 316
f 318 202 311
f 316 311 181
f 318 311 316
f 174 320 305
f 320 204 324
f 305 324 201
f 320 324 305
f 204 319 322
f 319 173 287
f 322 287 197
f 319 287 322
f 201 307 304
f 307 197 286
f 304 286 165
f 307 286 304
f 204 322 324
f 322 197 307
f 324 307 201
f 322 307 324
f 173 295 290
f 295 199 299
f 290 299 198
f 295 299 290
f 199 294 297
f 294 170 240
f 297 240 186
f 294 240 297
f 198 292 289
f 292 186 239
f 289 239 169
f 292 239 289
f 199 297 299
f 297 186 292
f 299 292 198
f 297 292 299
f 170 236 252
f 236 185 254
f 252 254 190
f 236 254 252
f 185 235 243
f 235 164 241
f 243 241 187
f 235 241 243
f 190 256 253
f 256 187 242
f 253 242 171
f 256 242 253
f 185 243 254
f 243 187 256
f 254 256 190
f 243 256 254
f 166 262 212
f 262 192 264
f 212 264 178
f 262 264 212
f 192 263 270
f 263 172 267
f 270 267 193
f 263 267 270
f 178 268 213
f 268 193 266
f 213 266 167
f 268 266 213
f 192 270 264
f 270 193 268
f 264 268 178
f 270 268 264
f 166 212 208
f 212 178 214
f 208 214 176
f 212 214 208
f 178 213 215
f 213 167 210
f 215 210 177
f 213 210 215
f 176 211 207
f 211 177 209
f 207 209 165
f 211 209 207
f 178 215 214
f 215 177 211
f 214 211 176
f 215 211 214
f 166 208 228
f 208 176 230
f 228 230 183
f 208 230 228
f 176 207 227
f 207 165 225
f 227 225 182
f 207 225 227
f 183 231 229
f 231 182 226
f 229 226 169
f 231 226 229
f 176 227 230
f 227 182 231
f 230 231 183
f 227 231 230
f 166 228 244
f 228 183 246
f 244 246 188
f 228 246 244
f 183 229 249
f 229 169 247
f 249 247 189
f 229 247 249
f 188 251 245
f 251 189 248
f 245 248 171
f 251 248 245
f 183 249 246
f 249 189 251
f 246 251 188
f 249 251 246
f 166 244 262
f 244 188 265
f 262 265 192
f 244 265 262
f 188 245 280
f 245 171 277
f 280 277 195
f 245 277 280
f 192 282 263
f 282 195 278
f 263 278 172
f 282 278 263
f 188 280 265
f 280 195 282
f 265 282 192
f 280 282 265
f 167 266 223
f 266 193 269
f 223 269 181
f 266 269 223
f 193 267 276
f 267 172 272
f 276 272 194
f 267 272 276
f 181 274 224
f 274 194 271
f 224 271 168
f 274 271 224
f 193 276 269
f 276 194 274
f 269 274 181
f 276 274 269
f 165 209 304
f 209 177 306
f 304 306 201
f 209 306 304
f 177 210 310
f 210 167 308
f 310 308 202
f 210 308 310
f 201 312 305
f 312 202 309
f 305 309 174
f 312 309 305
f 177 310 306
f 310 202 312
f 306 312 201
f 310 312 306
f 169 226 289
f 226 182 291
f 289 291 198
f 226 291 289
f 182 225 288
f 225 165 286
f 288 286 197
f 225 286 288
f 198 293 290
f 293 197 287
f 290 287 173
f 293 287 290
f 182 288 291
f 288 197 293
f 291 293 198
f 288 293 291
f 171 248 253
f 248 189 257
f 253 257 190
f 248 257 253
f 189 247 250
f 247 169 239
f 250 239 186
f 247 239 250
f 190 255 252
f 255 186 240
f 252 240 170
f 255 240 252
f 189 250 257
f 250 186 255
f 257 255 190
f 250 255 257
f 172 278 259
f 278 195 281
f 259 281 191
f 278 281 259
f 195 277 279
f 277 171 242
f 279 242 187
f 277 242 279
f 191 261 258
f 261 187 241
f 258 241 164
f 261 241 258
f 195 279 281
f 279 187 261
f 281 261 191
f 279 261 281

